{"glyphs":{":":{"x_min":0,"x_max":254,"ha":254,"o":"m 15 402 b 15 350 64 296 126 296 b 197 296 239 343 239 402 b 239 452 198 514 126 514 b 54 514 15 452 15 402 z m 15 98 b 15 46 61 -8 126 -8 b 194 -8 239 39 239 98 b 239 148 198 210 126 210 b 54 210 15 148 15 98 z"},"$":{"x_min":0,"x_max":710,"ha":710,"o":"m 667 448 l 667 699 l 495 699 l 485 615 b 463 657 427 683 385 699 l 385 788 l 321 788 l 321 714 b 306 716 291 717 276 717 b 178 717 38 650 38 502 b 38 247 422 280 422 202 b 422 160 372 152 337 152 b 295 154 211 168 211 252 l 25 252 l 25 0 l 200 0 l 211 77 b 235 49 272 19 321 2 l 321 -77 l 385 -77 l 385 -13 b 396 -14 408 -15 420 -15 b 539 -15 685 41 685 197 b 685 432 289 408 289 511 b 289 546 329 564 358 564 b 428 564 486 522 486 448 z"},"?":{"x_min":0,"x_max":520,"ha":520,"o":"m 110 477 b 144 517 197 559 240 559 b 275 559 314 550 314 512 b 314 457 155 405 155 313 l 155 233 l 341 233 l 341 288 b 341 348 500 380 500 510 b 500 645 395 715 262 715 b 162 715 72 667 2 586 z m 129 102 b 129 50 178 -1 243 -1 b 316 -1 362 46 362 102 b 362 159 314 208 243 208 b 171 208 129 152 129 102 z"},"<":{"x_min":0,"x_max":520,"ha":520,"o":"m 369 500 l 430 388 l 183 275 l 430 164 l 392 60 l 70 210 l 70 350 z"},"'":{"x_min":0,"x_max":273,"ha":273,"o":"m 234 701 l 36 701 l 73 402 l 198 402 z"},"=":{"x_min":0,"x_max":502,"ha":502,"o":"m 44 406 l 44 273 l 456 273 l 456 406 z m 44 185 l 44 52 l 456 52 l 456 185 z"},"a":{"x_min":0,"x_max":600,"ha":600,"o":"m 78 342 b 116 363 168 388 227 388 b 281 388 322 377 322 332 l 322 297 b 317 303 282 332 223 332 b 110 332 15 261 15 148 b 15 32 117 -19 212 -19 b 248 -19 310 -6 347 45 l 371 0 l 585 0 l 585 128 l 525 128 l 525 323 b 525 484 374 529 254 529 b 162 529 76 482 36 458 z m 322 144 b 313 129 288 111 258 111 b 228 111 205 130 205 158 b 205 189 223 211 263 211 b 305 211 319 187 322 182 z"},"L":{"x_min":0,"x_max":610,"ha":610,"o":"m 25 699 l 25 567 l 80 567 l 80 133 l 25 133 l 25 0 l 585 0 l 585 260 l 417 260 l 417 133 l 288 133 l 288 567 l 341 567 l 341 699 z"},"3":{"x_min":0,"x_max":540,"ha":540,"o":"m 134 498 b 169 535 213 558 251 558 b 293 558 339 533 339 479 b 339 434 302 410 254 410 l 181 410 l 181 291 l 256 291 b 306 291 339 272 339 218 b 339 168 305 141 249 141 b 192 141 154 169 117 206 l 15 100 b 54 42 153 -13 248 -13 b 383 -13 525 59 525 207 b 525 297 464 348 432 371 b 458 391 506 430 506 498 b 506 626 414 710 251 710 b 160 710 73 654 37 615 z"},";":{"x_min":0,"x_max":302,"ha":302,"o":"m 59 385 b 59 332 109 277 172 277 b 244 277 287 325 287 385 b 287 436 245 499 172 499 b 99 499 59 436 59 385 z m 5 -129 b 76 -40 110 45 100 196 l 282 148 b 286 19 222 -103 120 -194 z"},"J":{"x_min":0,"x_max":463,"ha":463,"o":"m 20 -193 b 36 -199 54 -204 73 -204 b 279 -204 355 -103 355 74 l 355 568 l 438 568 l 438 699 l 62 699 l 62 568 l 148 568 l 148 74 b 148 -33 115 -70 65 -70 b 47 -70 33 -67 20 -61 z"},"V":{"x_min":0,"x_max":773,"ha":773,"o":"m 420 224 b 418 252 405 296 389 345 l 304 569 l 358 569 l 358 699 l -10 699 l -10 569 l 45 569 l 310 0 l 494 0 l 734 569 l 783 569 l 783 699 l 499 699 l 499 569 l 552 569 l 461 351 b 441 301 427 252 425 224 z"},"\"":{"x_min":0,"x_max":530,"ha":530,"o":"m 254 701 l 56 701 l 93 402 l 218 402 z m 474 701 l 276 701 l 313 402 l 438 402 z"},"7":{"x_min":0,"x_max":566,"ha":566,"o":"m 15 699 l 15 501 l 175 501 l 175 566 l 339 566 l 71 0 l 287 0 l 556 566 l 556 699 z"},"S":{"x_min":0,"x_max":710,"ha":710,"o":"m 25 0 l 200 0 l 211 77 b 249 32 319 -15 420 -15 b 539 -15 685 41 685 197 b 685 432 289 408 289 511 b 289 546 329 564 358 564 b 428 564 486 522 486 448 l 667 448 l 667 699 l 495 699 l 485 615 b 445 690 360 717 276 717 b 178 717 38 650 38 502 b 38 247 422 280 422 202 b 422 160 372 152 337 152 b 295 154 211 168 211 252 l 25 252 z"},"}":{"x_min":0,"x_max":450,"ha":450,"o":"m 218 815 b 443 758 332 625 375 455 b 386 410 453 312 453 312 b 453 312 398 227 390 187 b 356 14 466 -129 218 -209 l 115 -102 b 322 -46 202 42 228 189 b 235 226 269 312 269 312 b 269 312 223 407 214 447 b 183 581 312 664 115 709 z"},"Z":{"x_min":0,"x_max":714,"ha":714,"o":"m 31 436 l 201 436 l 201 566 l 389 566 l 25 130 l 25 0 l 686 0 l 686 260 l 509 260 l 509 132 l 323 132 l 689 566 l 687 699 l 31 699 z"},"x":{"x_min":0,"x_max":649,"ha":649,"o":"m 375 500 l 375 375 l 442 375 l 367 299 l 297 375 l 344 375 l 344 500 l 20 500 l 20 375 l 65 375 l 189 239 l 87 124 l 20 124 l 20 0 l 276 0 l 276 124 l 211 124 l 283 205 l 359 124 l 312 124 l 312 0 l 631 0 l 631 124 l 584 124 l 458 268 l 564 375 l 630 375 l 630 500 z"},")":{"x_min":0,"x_max":388,"ha":388,"o":"m 25 708 b 73 650 179 527 179 311 b 179 88 84 -33 25 -103 l 128 -210 b 236 -112 363 83 363 311 b 363 547 211 742 128 814 z"},"&":{"x_min":0,"x_max":700,"ha":700,"o":"m 647 356 l 638 205 b 614 205 589 202 559 204 b 553 177 543 153 526 130 b 554 93 587 69 627 92 b 627 46 548 -60 435 25 b 337 -48 53 -57 53 168 b 53 305 150 360 194 389 b 95 541 206 666 324 666 b 521 666 570 458 370 337 b 410 268 439 230 457 211 b 484 255 482 279 482 356 z m 310 451 b 399 500 405 582 337 582 b 263 582 278 485 310 451 z m 253 276 b 82 129 265 31 361 110 b 317 160 277 230 253 276 z"},"_":{"x_min":0,"x_max":631,"ha":631,"o":"m 42 -44 l 42 -98 l 581 -98 l 581 -44 z"},"v":{"x_min":0,"x_max":613,"ha":613,"o":"m 326 162 b 324 183 313 229 300 267 l 254 373 l 304 373 l 304 500 l 0 500 l 0 373 l 47 373 l 233 0 l 388 0 l 561 373 l 613 373 l 613 500 l 355 500 l 355 373 l 408 373 l 360 272 b 343 233 331 183 330 162 z"},"O":{"x_min":0,"x_max":740,"ha":740,"o":"m 373 -18 b 599 -18 725 120 725 346 b 725 571 611 718 366 718 b 159 718 15 569 15 353 b 15 103 164 -18 373 -18 z m 373 139 b 309 139 262 222 262 353 b 262 477 304 565 365 564 b 442 564 475 467 475 346 b 475 222 436 139 373 139 z"},"(":{"x_min":0,"x_max":388,"ha":388,"o":"m 260 815 b 177 743 25 548 25 312 b 25 84 152 -111 260 -209 l 363 -102 b 304 -32 209 89 209 312 b 209 528 315 651 363 709 z"},"C":{"x_min":0,"x_max":686,"ha":686,"o":"m 554 253 b 545 243 479 155 395 155 b 300 155 249 244 249 343 b 249 452 296 541 368 541 b 439 541 471 480 474 415 l 653 415 l 653 699 l 496 699 l 473 643 b 464 655 419 711 319 711 b 188 711 15 573 15 343 b 15 120 156 -16 368 -16 b 499 -16 603 50 671 125 z"},"W":{"x_min":0,"x_max":1015,"ha":1015,"o":"m 320 226 b 316 256 299 375 288 423 l 262 569 l 320 569 l 320 699 l -10 699 l -10 569 l 46 569 l 178 0 l 410 0 l 471 240 b 478 269 491 332 495 362 l 499 362 b 504 331 515 272 524 238 l 584 0 l 821 0 l 970 569 l 1025 569 l 1025 699 l 739 699 l 739 569 l 794 569 l 760 417 b 751 375 734 271 730 226 l 725 226 b 720 276 709 358 695 423 l 632 699 l 424 699 l 374 474 b 354 379 327 254 325 226 z"},"A":{"x_min":0,"x_max":823,"ha":823,"o":"m 808 0 l 808 131 l 738 131 l 561 699 l 177 699 l 177 570 l 218 570 l 83 131 l 15 131 l 15 0 l 333 0 l 333 131 l 255 131 l 276 199 l 481 199 l 502 131 l 407 131 l 407 0 z m 313 319 l 378 535 l 444 319 z"},"f":{"x_min":0,"x_max":386,"ha":386,"o":"m 411 743 b 385 756 316 768 264 768 b 84 768 66 642 66 585 l 66 500 l 25 500 l 25 370 l 66 370 l 66 131 l 26 131 l 26 0 l 324 0 l 324 131 l 264 131 l 264 370 l 355 370 l 355 500 l 264 500 l 264 585 b 264 621 274 638 296 638 b 323 638 340 633 351 628 z"},"Q":{"x_min":0,"x_max":755,"ha":755,"o":"m 740 106 l 674 106 l 674 77 b 674 60 672 32 654 32 b 629 32 618 66 610 97 b 665 157 693 242 693 347 b 693 560 587 702 351 702 b 150 702 15 558 15 354 b 15 118 155 0 357 0 b 384 0 411 2 435 6 b 457 -53 508 -105 590 -105 b 690 -105 740 -34 740 55 z m 357 347 b 298 347 262 323 239 299 b 236 316 235 334 235 354 b 235 471 290 557 350 556 b 424 556 471 462 471 347 b 471 333 470 320 469 308 b 437 331 400 347 357 347 z m 357 150 b 333 150 310 161 290 183 b 304 223 324 256 357 256 b 391 256 403 222 410 172 b 394 158 376 150 357 150 z"},"w":{"x_min":0,"x_max":872,"ha":872,"o":"m 282 153 b 280 182 271 249 257 297 l 235 370 l 269 370 l 269 500 l 0 500 l 0 370 l 43 370 l 156 0 l 362 0 l 434 226 l 503 0 l 714 0 l 831 370 l 872 370 l 872 500 l 628 500 l 628 370 l 669 370 l 652 311 b 637 258 628 185 625 153 l 623 153 b 619 188 604 293 580 370 l 542 500 l 357 500 l 325 388 b 295 289 287 194 284 153 z"},"-":{"x_min":0,"x_max":386,"ha":386,"o":"m 47 305 l 47 172 l 337 172 l 337 305 z"},"E":{"x_min":0,"x_max":653,"ha":653,"o":"m 25 699 l 25 567 l 88 567 l 88 133 l 25 133 l 25 0 l 628 0 l 628 226 l 455 226 l 455 133 l 295 133 l 295 296 l 485 296 l 485 429 l 295 429 l 295 567 l 455 567 l 455 478 l 628 478 l 628 699 z"},"s":{"x_min":0,"x_max":508,"ha":508,"o":"m 15 0 l 140 0 l 149 61 b 173 23 230 -12 302 -12 b 399 -12 488 44 488 138 b 488 243 403 272 327 298 b 263 320 204 332 204 360 b 204 385 222 396 243 396 b 293 396 345 362 345 320 l 475 320 l 475 500 l 352 500 l 344 434 b 323 477 263 512 195 512 b 124 512 19 469 19 367 b 19 273 84 231 152 207 b 224 182 299 177 299 147 b 299 119 275 113 255 113 b 225 113 149 127 149 180 l 15 180 z"},">":{"x_min":0,"x_max":520,"ha":520,"o":"m 131 500 l 70 388 l 317 275 l 70 164 l 108 60 l 430 210 l 430 350 z"},"l":{"x_min":0,"x_max":332,"ha":332,"o":"m 317 0 l 317 131 l 258 131 l 258 750 l 26 750 l 26 621 l 68 621 l 68 131 l 25 131 l 25 0 z"},"8":{"x_min":0,"x_max":559,"ha":559,"o":"m 15 205 b 15 82 114 -13 280 -13 b 441 -13 544 82 544 205 b 544 273 509 345 441 378 b 485 399 525 448 525 514 b 525 625 441 711 286 711 b 136 711 48 625 48 514 b 48 466 73 411 123 381 b 57 348 15 270 15 205 z m 359 522 b 359 492 336 468 311 456 b 278 457 212 467 212 522 b 212 555 245 585 284 585 b 324 585 359 558 359 522 z m 188 211 b 188 248 216 283 246 300 b 292 298 373 281 373 211 b 372 156 330 129 281 129 b 231 129 188 164 188 211 z"},"\\":{"x_min":0,"x_max":402,"ha":402,"o":"m 0 731 l 290 -155 l 452 -155 l 162 731 z"},"e":{"x_min":0,"x_max":542,"ha":542,"o":"m 443 166 b 389 121 337 118 303 118 b 219 118 206 173 200 200 l 515 200 b 536 257 525 334 513 369 b 484 453 393 514 274 514 b 123 514 5 417 5 253 b 5 61 145 -18 269 -18 b 373 -18 453 5 527 69 z m 203 299 b 205 324 219 379 280 379 b 344 379 353 337 354 299 z"},"b":{"x_min":0,"x_max":656,"ha":656,"o":"m 31 0 l 256 0 l 271 34 b 299 10 327 -11 403 -11 b 544 -11 631 92 634 246 b 637 380 556 508 404 508 b 355 508 295 487 273 461 l 273 750 l 31 750 l 31 619 l 73 619 l 73 130 l 31 130 z m 414 244 b 414 168 385 119 343 119 b 305 119 271 171 271 239 b 267 318 303 367 342 367 b 386 367 414 304 414 244 z"},"%":{"x_min":0,"x_max":600,"ha":600,"o":"m 167 374 b 234 374 272 424 272 506 b 272 592 237 646 162 646 b 100 646 57 592 57 513 b 57 419 102 374 167 374 z m 462 643 l 255 3 l 140 3 l 347 643 z m 167 432 b 151 432 132 462 132 513 b 132 558 149 586 161 586 b 183 586 195 554 195 506 b 195 462 184 432 167 432 z m 437 2 b 504 2 542 52 542 134 b 542 220 507 274 432 274 b 370 274 327 220 327 141 b 327 47 372 2 437 2 z m 437 60 b 421 60 402 90 402 141 b 402 186 419 214 431 214 b 453 214 465 182 465 134 b 465 90 454 60 437 60 z"},"m":{"x_min":0,"x_max":908,"ha":908,"o":"m 322 0 l 322 131 l 262 131 l 262 309 b 262 350 275 369 307 369 b 347 369 349 336 349 255 l 349 0 l 608 0 l 608 134 l 548 134 l 548 296 b 548 339 558 369 601 369 b 648 369 639 293 639 245 l 639 0 l 893 0 l 893 135 l 844 135 l 844 273 b 844 395 819 513 657 513 b 588 513 541 476 510 441 b 494 465 462 513 361 513 b 298 513 252 459 236 440 l 214 499 l 25 499 l 25 367 l 67 367 l 67 131 l 25 131 l 25 0 z"},"#":{"x_min":0,"x_max":650,"ha":650,"o":"m 597 322 l 620 455 l 527 455 l 545 559 l 412 559 l 394 455 l 327 455 l 345 559 l 212 559 l 194 455 l 81 455 l 58 322 l 171 322 l 159 255 l 46 255 l 23 122 l 136 122 l 118 20 l 251 20 l 269 122 l 336 122 l 318 20 l 451 20 l 469 122 l 562 122 l 585 255 l 492 255 l 504 322 z m 359 255 l 292 255 l 304 322 l 371 322 z"},",":{"x_min":0,"x_max":272,"ha":272,"o":"m 109 -194 b 211 -103 275 19 271 148 l 89 196 b 99 45 65 -40 -6 -129 z"},"n":{"x_min":0,"x_max":647,"ha":647,"o":"m 333 0 l 333 131 l 261 131 l 261 273 b 261 316 273 366 324 366 b 383 366 380 307 380 273 l 380 0 l 632 0 l 632 131 l 585 131 l 585 298 b 585 403 559 518 404 518 b 341 518 295 485 261 438 l 238 500 l 25 500 l 25 370 l 67 370 l 67 131 l 25 131 l 25 0 z"},"h":{"x_min":0,"x_max":661,"ha":661,"o":"m 339 0 l 339 131 l 267 131 l 267 272 b 267 315 279 365 330 365 b 389 365 389 306 389 272 l 389 0 l 646 0 l 646 131 l 599 131 l 599 298 b 599 403 579 518 424 518 b 351 518 278 456 267 438 l 267 750 l 25 750 l 25 620 l 67 620 l 67 131 l 25 131 l 25 0 z"},"z":{"x_min":0,"x_max":553,"ha":553,"o":"m 25 300 l 155 300 l 155 371 l 266 371 l 25 131 l 25 0 l 528 0 l 528 199 l 387 199 l 387 131 l 282 131 l 520 371 l 520 500 l 25 500 z"},"B":{"x_min":0,"x_max":687,"ha":687,"o":"m 25 0 l 405 0 b 598 0 677 62 677 203 b 677 300 617 353 545 373 b 620 403 643 444 643 528 b 643 637 564 699 398 699 l 25 699 l 25 570 l 83 570 l 83 130 l 25 130 z m 290 567 l 353 567 b 391 567 419 540 419 494 b 419 446 404 417 351 417 l 290 417 z m 290 130 l 290 304 l 367 304 b 422 304 451 267 451 216 b 451 162 412 130 370 130 z"},"K":{"x_min":0,"x_max":815,"ha":815,"o":"m 340 570 l 340 699 l 25 699 l 25 570 l 79 570 l 79 130 l 25 130 l 25 0 l 340 0 l 340 130 l 286 130 l 286 237 l 360 300 l 468 130 l 400 130 l 400 0 l 790 0 l 790 130 l 732 130 l 530 445 l 675 570 l 733 570 l 733 699 l 400 699 l 400 570 l 472 570 l 286 407 l 286 570 z"},"R":{"x_min":0,"x_max":737,"ha":737,"o":"m 25 699 l 25 568 l 81 568 l 81 132 l 25 132 l 25 0 l 348 0 l 348 132 l 287 132 l 287 287 b 376 287 387 265 387 174 b 387 57 450 -12 581 -12 b 692 -12 727 65 727 148 l 727 203 l 660 203 l 660 170 b 660 150 652 138 637 138 b 619 138 613 163 613 206 b 613 278 551 338 482 348 b 565 360 627 415 627 493 b 627 607 582 699 350 699 z m 287 569 l 337 569 b 395 569 428 539 428 480 b 428 427 390 399 332 399 l 287 399 z"},"T":{"x_min":0,"x_max":701,"ha":701,"o":"m 686 699 l 15 699 l 15 439 l 162 439 l 162 567 l 248 567 l 248 133 l 166 133 l 166 0 l 538 0 l 538 133 l 455 133 l 455 567 l 539 567 l 539 439 l 686 439 z"},"P":{"x_min":0,"x_max":640,"ha":640,"o":"m 25 699 l 25 568 l 81 568 l 81 132 l 25 132 l 25 0 l 347 0 l 347 132 l 286 132 l 286 287 l 362 287 b 505 287 625 353 625 485 b 625 599 581 699 349 699 z m 286 569 l 336 569 b 394 569 429 537 429 478 b 429 425 389 395 331 395 l 286 395 z"},"|":{"x_min":0,"x_max":400,"ha":400,"o":"m 153 -101 l 246 -101 l 246 818 l 153 818 z"},"t":{"x_min":0,"x_max":363,"ha":363,"o":"m 15 500 l 15 370 l 69 370 l 69 192 b 72 64 77 -18 227 -18 b 250 -18 318 -11 348 1 l 348 129 b 329 121 298 112 285 112 b 246 112 253 158 253 192 l 253 370 l 348 370 l 348 500 l 253 500 l 253 651 l 69 592 l 69 500 z"},"M":{"x_min":0,"x_max":1008,"ha":1008,"o":"m 723 523 l 723 464 l 723 130 l 667 130 l 667 0 l 983 0 l 983 130 l 928 130 l 928 570 l 983 570 l 983 699 l 602 699 l 506 325 l 405 699 l 26 699 l 26 570 l 79 570 l 79 129 l 25 129 l 25 0 l 296 0 l 296 129 l 239 129 l 239 523 l 243 523 b 246 473 259 416 264 399 l 376 0 l 585 0 l 690 389 b 697 412 711 478 719 523 z"},"g":{"x_min":0,"x_max":640,"ha":640,"o":"m 24 -117 b 62 -152 143 -204 253 -205 b 463 -204 565 -96 565 70 l 565 369 l 625 369 l 625 500 l 387 500 l 367 469 b 347 489 305 510 261 510 b 96 510 10 408 10 253 b 10 127 78 3 250 3 b 314 3 353 40 367 58 l 367 24 b 367 -18 341 -70 251 -70 b 175 -70 100 -26 77 -6 z m 223 255 b 223 331 252 380 294 380 b 332 380 366 328 366 260 b 370 181 334 132 295 132 b 251 132 223 195 223 255 z"},"j":{"x_min":0,"x_max":360,"ha":360,"o":"m 114 646 b 114 598 159 545 222 545 b 293 545 332 591 332 646 b 332 692 291 748 222 748 b 152 748 114 692 114 646 z m 128 370 l 128 70 b 128 22 130 -75 14 -75 l 14 -209 b 280 -209 318 -54 318 70 l 318 500 l 86 500 l 86 370 z"},"i":{"x_min":0,"x_max":330,"ha":330,"o":"m 53 646 b 53 598 98 545 161 545 b 232 545 271 591 271 646 b 271 692 230 748 161 748 b 91 748 53 692 53 646 z m 305 0 l 305 131 l 257 131 l 257 500 l 25 500 l 25 370 l 67 370 l 67 131 l 25 131 l 25 0 z"},"y":{"x_min":0,"x_max":580,"ha":580,"o":"m 382 373 l 317 217 l 252 373 l 299 373 l 299 500 l -9 500 l -9 372 l 32 372 l 227 2 l 213 -40 b 203 -70 180 -99 149 -93 b 128 -89 108 -74 91 -59 l 16 -177 b 46 -203 85 -224 137 -227 b 282 -228 323 -148 352 -86 l 542 376 l 590 376 l 590 500 l 336 500 l 336 373 z"},"@":{"x_min":0,"x_max":833,"ha":833,"o":"m 585 289 b 585 393 488 422 411 422 b 351 422 296 392 270 375 l 297 301 b 322 315 354 331 392 331 b 430 331 453 323 453 295 l 453 272 b 450 275 430 295 390 295 b 317 295 257 251 257 176 b 257 102 322 68 383 68 b 406 68 450 76 470 110 l 486 81 b 533 16 774 -49 774 234 b 774 393 651 593 415 593 b 179 593 59 393 59 234 b 59 55 204 -112 420 -110 l 420 -20 b 258 -23 152 101 152 234 b 152 354 239 503 415 503 b 591 503 681 354 681 234 b 681 53 588 110 585 163 z m 453 174 b 450 163 430 153 413 153 b 393 153 379 164 379 182 b 379 202 390 217 415 217 b 445 217 450 201 453 197 z"},".":{"x_min":0,"x_max":258,"ha":258,"o":"m 15 104 b 15 51 62 -4 128 -4 b 203 -4 243 44 243 104 b 243 155 201 218 128 218 b 55 218 15 155 15 104 z"},"p":{"x_min":0,"x_max":638,"ha":638,"o":"m 25 -73 l 25 -204 l 324 -204 l 324 -73 l 270 -73 l 270 28 b 277 22 317 -11 400 -11 b 529 -11 628 87 628 246 b 628 388 548 508 392 508 b 332 508 290 479 271 465 l 254 500 l 25 500 l 25 367 l 67 367 l 67 -73 z m 413 244 b 413 168 384 119 342 119 b 304 119 270 171 270 239 b 266 318 302 367 341 367 b 385 367 413 304 413 244 z"},"X":{"x_min":0,"x_max":835,"ha":835,"o":"m 357 0 l 357 129 l 268 129 l 371 260 l 392 232 l 468 130 l 411 130 l 411 0 l 810 0 l 810 130 l 752 130 l 572 376 l 723 569 l 808 569 l 808 699 l 476 699 l 476 569 l 564 569 l 462 436 l 364 569 l 422 569 l 422 699 l 26 699 l 26 569 l 78 569 l 259 320 l 112 129 l 25 129 l 25 0 z"},"*":{"x_min":0,"x_max":600,"ha":600,"o":"m 249 696 l 352 696 l 371 665 l 349 549 l 439 596 l 481 598 l 513 496 l 476 475 l 378 455 l 455 375 l 464 339 l 380 275 l 349 307 l 299 397 l 246 301 l 219 276 l 136 339 l 136 367 l 222 456 l 128 477 l 87 496 l 119 598 l 163 596 l 252 550 l 230 666 z"},"Y":{"x_min":0,"x_max":669,"ha":669,"o":"m 369 384 b 365 401 344 446 338 465 l 280 571 l 332 571 l 332 699 l -10 699 l -10 571 l 39 571 l 233 248 l 233 130 l 176 130 l 176 0 l 496 0 l 496 130 l 440 130 l 440 246 l 625 571 l 679 571 l 679 699 l 410 699 l 410 571 l 465 571 l 410 470 b 399 446 377 404 373 384 z"},"c":{"x_min":0,"x_max":531,"ha":531,"o":"m 507 274 l 507 500 l 389 500 l 372 452 b 355 472 315 509 247 509 b 119 509 1 430 1 253 b 1 75 129 -14 276 -14 b 384 -14 474 37 521 88 l 433 190 b 400 154 365 132 312 133 b 248 134 209 186 209 251 b 209 316 238 379 297 379 b 343 379 358 322 360 274 z"},"!":{"x_min":0,"x_max":308,"ha":308,"o":"m 32 509 l 86 257 l 218 257 l 271 509 l 271 699 l 32 699 z m 28 102 b 28 50 77 -1 142 -1 b 215 -1 261 46 261 102 b 261 159 213 208 142 208 b 70 208 28 152 28 102 z"},"/":{"x_min":0,"x_max":402,"ha":402,"o":"m 402 731 l 112 -155 l -50 -155 l 240 731 z"},"[":{"x_min":0,"x_max":388,"ha":388,"o":"m 387 -210 l 387 -79 l 328 -79 l 328 683 l 388 683 l 388 814 l 138 814 l 138 -210 z"},"6":{"x_min":0,"x_max":581,"ha":581,"o":"m 546 631 b 487 681 377 712 310 710 b 47 702 13 437 16 304 b 22 104 143 -14 307 -9 b 470 -4 566 110 566 244 b 566 380 460 472 332 467 b 279 465 227 442 201 416 b 211 490 258 550 332 552 b 393 552 444 521 478 501 z m 306 323 b 366 324 386 273 387 234 b 388 186 347 148 296 148 b 232 148 203 216 203 266 b 219 286 259 321 306 323 z"},"r":{"x_min":0,"x_max":414,"ha":414,"o":"m 308 0 l 308 131 l 258 131 l 258 234 b 258 322 309 345 399 345 l 399 525 b 296 525 270 484 244 436 l 214 500 l 26 500 l 26 370 l 69 370 l 69 131 l 25 131 l 25 0 z"},"2":{"x_min":0,"x_max":590,"ha":590,"o":"m 141 472 b 171 504 210 548 264 548 b 310 548 348 533 348 482 b 348 420 242 378 171 315 b 107 264 80 235 25 145 l 25 0 l 565 0 l 565 213 l 397 213 l 397 133 l 221 133 b 244 173 323 236 371 267 b 477 336 531 376 531 491 b 531 626 426 710 293 710 b 193 710 103 667 33 586 z"},"{":{"x_min":0,"x_max":450,"ha":450,"o":"m 260 815 b 35 758 146 625 103 455 b 92 410 25 312 25 312 b 25 312 80 227 88 187 b 122 14 12 -129 260 -209 l 363 -102 b 156 -46 276 42 250 189 b 243 226 209 312 209 312 b 209 312 255 407 264 447 b 295 581 166 664 363 709 z"},"9":{"x_min":0,"x_max":587,"ha":587,"o":"m 35 70 b 94 20 204 -11 271 -9 b 534 -1 575 245 571 397 b 565 597 438 715 274 710 b 111 705 15 591 15 457 b 15 321 121 229 249 234 b 302 236 345 259 371 285 b 372 197 323 151 249 149 b 188 149 137 180 103 200 z m 275 378 b 215 377 195 428 194 467 b 193 515 234 553 285 553 b 349 553 369 485 369 435 b 353 415 322 380 275 378 z"}," ":{"x_min":0,"x_max":250,"ha":250,"o":""},"I":{"x_min":0,"x_max":382,"ha":382,"o":"m 25 699 l 25 567 l 88 567 l 88 133 l 25 133 l 25 0 l 357 0 l 357 133 l 295 133 l 295 567 l 357 567 l 357 699 z"},"H":{"x_min":0,"x_max":768,"ha":768,"o":"m 25 699 l 25 567 l 80 567 l 80 132 l 25 132 l 25 0 l 349 0 l 349 132 l 287 132 l 287 283 l 477 283 l 477 132 l 418 132 l 418 0 l 743 0 l 743 132 l 685 132 l 685 567 l 743 567 l 743 699 l 418 699 l 418 567 l 477 567 l 477 416 l 287 416 l 287 567 l 349 567 l 349 699 z"},"4":{"x_min":0,"x_max":584,"ha":584,"o":"m 10 340 l 10 197 l 298 197 l 298 132 l 235 132 l 235 0 l 559 0 l 559 132 l 505 132 l 505 197 l 558 197 l 558 305 l 505 305 l 505 699 l 298 699 z m 298 305 l 150 305 l 298 490 z"},"~":{"x_min":0,"x_max":400,"ha":400,"o":"m 0 307 b 39 343 139 347 212 311 b 289 278 370 304 398 338 l 398 229 b 361 185 250 192 188 219 b 116 250 34 231 0 198 z"},"D":{"x_min":0,"x_max":720,"ha":720,"o":"m 25 0 l 326 0 b 572 0 710 131 710 359 b 710 550 572 699 330 699 l 25 699 l 25 567 l 87 567 l 87 133 l 25 133 z m 292 133 l 292 567 l 330 567 b 436 567 480 466 480 359 b 480 234 436 135 330 133 z"},"0":{"x_min":0,"x_max":599,"ha":599,"o":"m 302 -12 b 483 -12 584 124 584 346 b 584 567 493 712 297 712 b 131 712 15 565 15 353 b 15 107 135 -12 302 -12 z m 302 143 b 262 143 213 224 213 353 b 213 475 259 552 296 551 b 345 551 383 465 383 346 b 383 224 348 143 302 143 z"},"F":{"x_min":0,"x_max":638,"ha":638,"o":"m 25 699 l 25 567 l 87 567 l 87 133 l 25 133 l 25 0 l 397 0 l 397 133 l 295 133 l 295 260 l 485 260 l 485 393 l 295 393 l 295 567 l 446 567 l 446 478 l 623 478 l 623 699 z"},"k":{"x_min":0,"x_max":654,"ha":654,"o":"m 38 0 l 305 0 l 305 131 l 268 131 l 268 215 l 303 239 l 379 131 l 337 131 l 337 0 l 633 0 l 633 131 l 583 131 l 448 324 l 516 367 l 593 367 l 593 499 l 313 499 l 313 367 l 385 367 l 269 298 l 269 750 l 38 750 l 38 619 l 79 619 l 79 130 l 38 130 z"},"u":{"x_min":0,"x_max":631,"ha":631,"o":"m 15 500 l 15 368 l 57 368 l 57 230 b 57 64 107 -14 258 -14 b 343 -14 378 38 400 63 l 427 0 l 616 0 l 616 133 l 567 133 l 567 500 l 308 500 l 308 368 l 374 368 l 374 209 b 374 164 346 133 311 133 b 270 133 257 173 257 259 l 257 500 z"},"]":{"x_min":0,"x_max":388,"ha":388,"o":"m 1 -210 l 1 -79 l 60 -79 l 60 683 l 0 683 l 0 814 l 250 814 l 250 -210 z"},"U":{"x_min":0,"x_max":737,"ha":737,"o":"m 15 699 l 15 569 l 71 569 l 71 322 b 71 95 179 -11 381 -17 b 569 -17 668 90 668 327 l 668 570 l 722 570 l 722 699 l 426 699 l 426 567 l 480 567 l 480 355 b 480 183 440 159 379 159 b 315 159 279 193 279 354 l 279 570 l 333 570 l 333 699 z"},"o":{"x_min":0,"x_max":574,"ha":574,"o":"m 290 -13 b 442 -13 565 82 563 248 b 560 415 443 510 285 512 b 147 512 12 419 11 252 b 9 75 147 -13 290 -13 z m 290 115 b 248 115 216 169 216 251 b 216 324 246 382 285 382 b 332 381 358 323 358 248 b 358 173 333 115 290 115 z"},"N":{"x_min":0,"x_max":816,"ha":816,"o":"m 791 570 l 791 699 l 490 699 l 490 570 l 558 570 l 558 332 l 313 699 l 26 699 l 26 570 l 84 570 l 84 129 l 25 129 l 25 0 l 332 0 l 332 129 l 255 129 l 255 381 l 510 0 l 725 0 l 725 570 z"},"+":{"x_min":0,"x_max":631,"ha":631,"o":"m 581 305 l 378 305 l 378 508 l 245 508 l 245 305 l 42 305 l 42 172 l 245 172 l 245 -31 l 378 -31 l 378 172 l 581 172 z"},"G":{"x_min":0,"x_max":776,"ha":776,"o":"m 521 0 l 721 0 l 721 250 l 761 250 l 761 357 l 429 357 l 429 250 l 490 250 l 490 208 b 475 182 451 159 394 159 b 307 159 257 241 257 343 b 257 443 313 531 394 531 b 453 531 505 485 508 404 l 687 404 l 687 699 l 538 699 l 517 627 b 501 643 467 711 322 711 b 166 711 15 561 15 343 b 15 127 154 -9 329 -9 b 406 -9 468 26 490 63 z"},"q":{"x_min":0,"x_max":660,"ha":660,"o":"m 318 -99 l 318 -230 l 635 -230 l 635 -96 l 586 -96 l 586 370 l 635 370 l 635 500 l 402 500 l 383 470 b 373 483 329 510 264 510 b 131 510 25 426 25 253 b 25 92 127 -9 255 -9 b 314 -9 360 14 383 33 l 383 -99 z m 383 257 b 383 181 354 132 312 132 b 274 132 240 184 240 252 b 236 331 272 380 311 380 b 355 380 383 317 383 257 z"},"d":{"x_min":0,"x_max":634,"ha":634,"o":"m 368 620 l 368 472 b 349 484 313 510 242 510 b 119 510 10 411 10 255 b 10 116 101 -9 242 -9 b 311 -9 355 25 368 37 l 385 0 l 619 0 l 619 130 l 571 130 l 571 750 l 322 750 l 322 620 z m 225 255 b 225 331 254 380 296 380 b 334 380 368 328 368 260 b 372 181 336 132 297 132 b 253 132 225 195 225 255 z"},"1":{"x_min":0,"x_max":496,"ha":496,"o":"m 71 457 l 171 504 l 171 133 l 71 133 l 71 0 l 471 0 l 471 133 l 378 133 l 378 699 l 200 699 b 127 612 82 596 25 568 z"},"5":{"x_min":0,"x_max":577,"ha":577,"o":"m 238 550 l 507 550 l 507 699 l 111 699 l 50 355 l 178 298 b 199 320 226 344 272 344 b 329 344 374 300 374 247 b 374 189 331 147 264 147 b 206 147 163 181 124 221 l 15 108 b 56 46 162 -13 263 -13 b 408 -13 562 72 562 240 b 562 395 446 477 329 477 b 280 477 241 466 221 453 z"}}}
